<?xml version="1.0" encoding="UTF-8" standalone="no"?>
<svg
   height="128px"
   viewBox="0 0 128 128"
   width="128px"
   version="1.1"
   id="svg236"
   sodipodi:docname="com.github.bytezz.alarm.svg"
   inkscape:version="1.2.1 (9c6d41e410, 2022-07-14)"
   xmlns:inkscape="http://www.inkscape.org/namespaces/inkscape"
   xmlns:sodipodi="http://sodipodi.sourceforge.net/DTD/sodipodi-0.dtd"
   xmlns="http://www.w3.org/2000/svg"
   xmlns:svg="http://www.w3.org/2000/svg">
  <defs
     id="defs240" />
  <sodipodi:namedview
     id="namedview238"
     pagecolor="#505050"
     bordercolor="#ffffff"
     borderopacity="1"
     inkscape:showpageshadow="0"
     inkscape:pageopacity="0"
     inkscape:pagecheckerboard="1"
     inkscape:deskcolor="#505050"
     showgrid="false"
     inkscape:zoom="3.875"
     inkscape:cx="38.967742"
     inkscape:cy="66.580645"
     inkscape:window-width="1366"
     inkscape:window-height="702"
     inkscape:window-x="0"
     inkscape:window-y="0"
     inkscape:window-maximized="1"
     inkscape:current-layer="svg236" />
  <linearGradient
     id="a"
     gradientTransform="matrix(1 0 0 0.863636 0 -132.727272)"
     gradientUnits="userSpaceOnUse"
     x1="8"
     x2="120"
     y1="292"
     y2="292">
    <stop
       offset="0"
       stop-color="#854cc7"
       id="stop132"
       style="stop-color:#3d3846;stop-opacity:1;" />
    <stop
       offset="0.0357143"
       stop-color="#b179f1"
       id="stop134"
       style="stop-color:#77767b;stop-opacity:1;" />
    <stop
       offset="0.0714286"
       stop-color="#854cc7"
       id="stop136"
       style="stop-color:#3d3846;stop-opacity:1;" />
    <stop
       offset="0.92857099"
       stop-color="#854cc7"
       id="stop138"
       style="stop-color:#3d3846;stop-opacity:1;" />
    <stop
       offset="0.96428603"
       stop-color="#b179f1"
       id="stop140"
       style="stop-color:#77767b;stop-opacity:1;" />
    <stop
       offset="1"
       stop-color="#854cc7"
       id="stop142"
       style="stop-color:#3d3846;stop-opacity:1;" />
  </linearGradient>
  <linearGradient
     id="b"
     gradientTransform="matrix(-1 0 0 -1 143.999985 -166)"
     gradientUnits="userSpaceOnUse"
     x1="27.99999"
     x2="79.999992"
     y1="-276"
     y2="-276">
    <stop
       offset="0"
       stop-color="#c0bfbc"
       id="stop145" />
    <stop
       offset="0.0769231"
       stop-color="#f6f5f4"
       id="stop147" />
    <stop
       offset="0.153846"
       stop-color="#c0bfbc"
       id="stop149" />
    <stop
       offset="0.846154"
       stop-color="#c0bfbc"
       id="stop151" />
    <stop
       offset="0.923077"
       stop-color="#f6f5f4"
       id="stop153" />
    <stop
       offset="1"
       stop-color="#c0bfbc"
       id="stop155" />
  </linearGradient>
  <path
     d="m 16,40 h 96 c 4.41797,0 8,3.582031 8,8 v 60 c 0,4.41797 -3.58203,8 -8,8 H 16 c -4.417969,0 -8,-3.58203 -8,-8 V 48 c 0,-4.417969 3.582031,-8 8,-8 z m 0,0"
     fill="url(#a)"
     id="path158"
     style="display:inline" />
  <path
     d="m 16,28 h 96 c 4.41797,0 8,3.582031 8,8 v 56 c 0,4.417969 -3.58203,8 -8,8 H 16 C 11.582031,100 8,96.417969 8,92 V 36 c 0,-4.417969 3.582031,-8 8,-8 z m 0,0"
     fill="#b179f1"
     id="path160"
     style="display:inline;fill:#5e5c64;fill-opacity:1"
     inkscape:label="path160" />
  <path
     d="m 16,30 h 96 c 3.3125,0 6,2.6875 6,6 v 38 c 0,3.3125 -2.6875,6 -6,6 H 16 c -3.3125,0 -6,-2.6875 -6,-6 V 36 c 0,-3.3125 2.6875,-6 6,-6 z m 0,0"
     fill="#241f31"
     id="path162"
     style="display:inline" />
  <g
     fill="#b179f1"
     id="g200"
     style="display:inline;fill:#57e389;fill-opacity:1">
    <path
       d="m 49,50 2,-2 h 2 l 2,2 -2,2 h -2 z m 0,0"
       id="path164"
       style="fill:#57e389;fill-opacity:1" />
    <path
       d="m 27,38 2,-2 h 10 l 2,2 -2,2 H 29 Z m 0,0"
       id="path166"
       style="fill:#57e389;fill-opacity:1" />
    <path
       d="m 27,54 2,-2 h 10 l 2,2 -2,2 H 29 Z m 0,0"
       id="path168"
       style="fill:#57e389;fill-opacity:1" />
    <path
       d="m 27,70 2,-2 h 10 l 2,2 -2,2 H 29 Z m 0,0"
       id="path170"
       style="fill:#57e389;fill-opacity:1" />
    <path
       d="m 42,39 2,2 v 10 l -2,2 -2,-2 V 41 Z m 0,0"
       id="path172"
       style="fill:#57e389;fill-opacity:1" />
    <path
       d="m 42,55 2,2 v 10 l -2,2 -2,-2 V 57 Z m 0,0"
       id="path174"
       style="fill:#57e389;fill-opacity:1" />
    <path
       d="m 63,38 2,-2 h 10 l 2,2 -2,2 H 65 Z m 0,0"
       id="path176"
       style="fill:#57e389;fill-opacity:1" />
    <path
       d="m 63,70 2,-2 h 10 l 2,2 -2,2 H 65 Z m 0,0"
       id="path178"
       style="fill:#57e389;fill-opacity:1" />
    <path
       d="m 78,39 2,2 v 10 l -2,2 -2,-2 V 41 Z m 0,0"
       id="path180"
       style="fill:#57e389;fill-opacity:1" />
    <path
       d="m 102,55 2,2 v 10 l -2,2 -2,-2 V 57 Z m 0,0"
       id="path182"
       style="fill:#57e389;fill-opacity:1" />
    <path
       d="m 62,55 2,2 v 10 l -2,2 -2,-2 V 57 Z m 0,0"
       id="path184"
       style="fill:#57e389;fill-opacity:1" />
    <path
       d="m 87,38 2,-2 h 10 l 2,2 -2,2 H 89 Z m 0,0"
       id="path186"
       style="fill:#57e389;fill-opacity:1" />
    <path
       d="m 87,54 2,-2 h 10 l 2,2 -2,2 H 89 Z m 0,0"
       id="path188"
       style="fill:#57e389;fill-opacity:1" />
    <path
       d="m 63,54 2,-2 h 10 l 2,2 -2,2 H 65 Z m 0,0"
       id="path190"
       style="fill:#57e389;fill-opacity:1" />
    <path
       d="m 87,70 2,-2 h 10 l 2,2 -2,2 H 89 Z m 0,0"
       id="path192"
       style="fill:#57e389;fill-opacity:1" />
    <path
       d="m 86,39 2,2 v 10 l -2,2 -2,-2 V 41 Z m 0,0"
       id="path194"
       style="fill:#57e389;fill-opacity:1" />
    <path
       d="m 86,55 2,2 v 10 l -2,2 -2,-2 V 57 Z m 0,0"
       id="path196"
       style="fill:#57e389;fill-opacity:1" />
    <path
       d="m 49,58 2,-2 h 2 l 2,2 -2,2 h -2 z m 0,0"
       id="path198"
       style="fill:#57e389;fill-opacity:1" />
  </g>
  <path
     d="m 28 91 c 0 2.761719 -2.238281 5 -5 5 s -5 -2.238281 -5 -5 s 2.238281 -5 5 -5 s 5 2.238281 5 5 z m 0 0"
     fill="#854cc7"
     id="path202"
     style="fill:#3d3846;fill-opacity:1" />
  <path
     d="m 28 89 c 0 2.761719 -2.238281 5 -5 5 s -5 -2.238281 -5 -5 s 2.238281 -5 5 -5 s 5 2.238281 5 5 z m 0 0"
     fill="#e7f1fc"
     id="path204" />
  <path
     d="m 44 91 c 0 2.761719 -2.238281 5 -5 5 s -5 -2.238281 -5 -5 s 2.238281 -5 5 -5 s 5 2.238281 5 5 z m 0 0"
     fill="#854cc7"
     id="path206"
     style="fill:#3d3846;fill-opacity:1" />
  <path
     d="m 44 89 c 0 2.761719 -2.238281 5 -5 5 s -5 -2.238281 -5 -5 s 2.238281 -5 5 -5 s 5 2.238281 5 5 z m 0 0"
     fill="#e7f1fc"
     id="path208" />
</svg>
